HIERARCHY
ROOT Model_Hips
{
	OFFSET 0.000000 96.915077 0.000000
	CHANNELS 6 Xposition Yposition Zposition Xrotation Yrotation Zrotation
	JOINT Model_Spine
	{
		OFFSET 0.000000 11.137703 -1.289900
		CHANNELS 3 Xrotation Yrotation Zrotation
		JOINT Model_Spine1
		{
			OFFSET 0.000000 12.993942 -1.504922
			CHANNELS 3 Xrotation Yrotation Zrotation
			JOINT Model_Spine2
			{
				OFFSET 0.000000 14.850220 -1.719911
				CHANNELS 3 Xrotation Yrotation Zrotation
				JOINT Model_Neck
				{
					OFFSET 0.000000 16.706543 -1.934903
					CHANNELS 3 Xrotation Yrotation Zrotation
					JOINT Model_Head
					{
						OFFSET 0.000000 10.471298 2.002100
						CHANNELS 3 Xrotation Yrotation Zrotation
						JOINT Model_HeadTop_End
						{
							OFFSET 0.000000 20.842606 3.985100
							CHANNELS 3 Xrotation Yrotation Zrotation
							End Site
							{
								OFFSET 0.000000 21.220154 0.000000
							}
						}
					}
				}
				JOINT Model_LeftShoulder
				{
					OFFSET 7.008500 14.768600 -1.919946
					CHANNELS 3 Xrotation Yrotation Zrotation
					JOINT Model_LeftArm
					{
						OFFSET 14.126271 -3.718048 0.029937
						CHANNELS 3 Xrotation Yrotation Zrotation
						JOINT Model_LeftForeArm
						{
							OFFSET 28.282801 0.000000 0.000000
							CHANNELS 3 Xrotation Yrotation Zrotation
							JOINT Model_LeftHand
							{
								OFFSET 26.204689 0.000000 0.000000
								CHANNELS 3 Xrotation Yrotation Zrotation
								End Site
								{
									OFFSET 26.204704 0.000000 0.000000
								}
							}
						}
					}
				}
				JOINT Model_RightShoulder
				{
					OFFSET -7.008500 14.768555 -1.949840
					CHANNELS 3 Xrotation Yrotation Zrotation
					JOINT Model_RightArm
					{
						OFFSET -14.126281 -3.718018 -0.029932
						CHANNELS 3 Xrotation Yrotation Zrotation
						JOINT Model_RightForeArm
						{
							OFFSET -28.283798 0.000000 -0.000001
							CHANNELS 3 Xrotation Yrotation Zrotation
							JOINT Model_RightHand
							{
								OFFSET -26.204193 0.000000 -0.000001
								CHANNELS 3 Xrotation Yrotation Zrotation
								End Site
								{
									OFFSET -26.204208 0.000000 -0.000001
								}
							}
						}
					}
				}
			}
		}
	}
	JOINT Model_LeftUpLeg
	{
		OFFSET 8.327700 -6.193199 -0.402800
		CHANNELS 3 Xrotation Yrotation Zrotation
		JOINT Model_LeftLeg
		{
			OFFSET 0.735802 -42.108742 -0.610721
			CHANNELS 3 Xrotation Yrotation Zrotation
			JOINT Model_LeftFoot
			{
				OFFSET -0.735806 -36.833748 -0.172876
				CHANNELS 3 Xrotation Yrotation Zrotation
				JOINT Model_LeftToeBase
				{
					OFFSET -0.565857 -11.977769 16.297714
					CHANNELS 3 Xrotation Yrotation Zrotation
					JOINT Model_LeftToe_End
					{
						OFFSET -0.111712 -0.312793 7.857784
						CHANNELS 3 Xrotation Yrotation Zrotation
						End Site
						{
							OFFSET -0.111712 -0.312793 7.857784
						}
					}
				}
			}
		}
	}
	JOINT Model_RightUpLeg
	{
		OFFSET -8.327700 -6.193199 -0.516500
		CHANNELS 3 Xrotation Yrotation Zrotation
		JOINT Model_RightLeg
		{
			OFFSET -0.735785 -42.108738 -0.434061
			CHANNELS 3 Xrotation Yrotation Zrotation
			JOINT Model_RightFoot
			{
				OFFSET 0.735776 -36.833748 -0.021630
				CHANNELS 3 Xrotation Yrotation Zrotation
				JOINT Model_RightToeBase
				{
					OFFSET 0.565817 -11.977745 15.903093
					CHANNELS 3 Xrotation Yrotation Zrotation
					JOINT Model_RightToe_End
					{
						OFFSET 0.111702 -0.312791 7.811342
						CHANNELS 3 Xrotation Yrotation Zrotation
						End Site
						{
							OFFSET 0.111702 -0.312791 7.811342
						}
					}
				}
			}
		}
	}
}
MOTION
Frames: 6
Frame Time: 0.033333
-1.153489 94.758781 99.602570 -9.793988 4.666041 0.306763 3.654218 0.712096 0.858958 7.298249 1.476982 1.671446 7.298250 1.476981 1.671445 -5.337665 -0.491583 -0.402144 -5.337665 -0.491588 -0.402145 -0.000000 0.000001 -0.000000 8.210697 6.079625 -2.828217 8.160209 -32.578606 -68.508232 -0.133516 -28.746620 -0.004916 0.000001 -0.000001 0.000001 8.576580 4.738144 -5.340307 -6.340408 15.112287 65.703544 -0.074067 39.334779 -0.001978 0.000001 0.000002 -0.000001 -17.255814 7.271467 9.365555 46.072385 -1.323697 -1.770818 -13.721900 -3.275138 -5.202515 -3.892080 -0.031702 0.074244 -0.000001 -0.000000 0.000001 -9.533713 -14.912186 -0.174201 33.262830 -3.456432 1.082756 -15.817789 -14.212278 -4.555083 -2.572654 -0.176830 0.432218 0.000000 -0.000001 0.000000 
-0.814145 94.852409 100.859344 -9.715090 4.289471 -0.070825 3.578297 0.737018 0.896556 7.146873 1.540657 1.693191 7.146874 1.540657 1.693191 -5.326725 -0.478130 -0.404498 -5.326730 -0.478131 -0.404501 -0.000000 -0.000000 0.000000 8.386295 6.410907 -2.994233 8.523469 -32.478676 -68.712796 -0.132403 -30.281616 -0.004438 0.000001 -0.000000 -0.000001 8.661778 4.987359 -5.131975 -6.497658 16.025727 65.357609 -0.071590 41.053596 -0.001245 -0.000001 -0.000000 0.000000 -15.495881 7.666466 8.346015 38.938468 -0.945830 -1.522878 -11.840869 -4.392887 -4.567441 -2.766892 -0.030478 0.070970 0.000000 -0.000002 -0.000000 -8.492889 -14.906639 0.042814 32.989838 -3.376364 1.084954 -16.391095 -13.799376 -4.151724 -2.538418 -0.176806 0.432413 0.000000 -0.000001 0.000000 
-0.447648 94.998131 102.137482 -9.774973 3.941829 -0.604255 3.477816 0.685446 0.962092 6.947301 1.448853 1.760688 6.947300 1.448854 1.760688 -5.278270 -0.445833 -0.390508 -5.278272 -0.445837 -0.390511 -0.000000 -0.000000 0.000000 8.548495 6.649612 -3.072820 8.302081 -32.340775 -69.286668 -0.128108 -30.788700 -0.004247 0.000002 -0.000001 -0.000000 8.753494 5.193257 -4.897620 -6.653894 17.130733 65.269745 -0.068409 42.175117 0.000240 -0.000000 0.000001 -0.000001 -13.794361 8.005757 7.731715 34.261086 -0.367919 -1.332711 -10.186021 -4.722085 -3.297266 -1.589310 -0.029250 0.066013 0.000000 0.000000 -0.000000 -7.018775 -14.676704 0.540446 32.227616 -3.341793 1.072575 -16.717926 -13.618167 -3.714106 -2.517369 -0.176757 0.432547 0.000000 0.000000 0.000000 
-0.072165 95.171432 103.380157 -9.985895 3.610663 -1.043369 3.370747 0.581737 0.999426 6.735187 1.250180 1.784431 6.735186 1.250181 1.784432 -5.213748 -0.403953 -0.364284 -5.213747 -0.403953 -0.364283 -0.000000 -0.000000 0.000000 8.690789 6.737064 -3.055436 7.658060 -32.284221 -69.947318 -0.121562 -30.391613 -0.004227 -0.000001 -0.000001 0.000001 8.855201 5.329398 -4.606736 -7.052605 17.908068 65.698756 -0.064768 42.550620 0.001954 0.000000 -0.000000 -0.000000 -12.105781 8.432037 7.265548 30.985669 0.157765 -1.158100 -8.913725 -4.718363 -1.865296 -0.957142 -0.028614 0.063704 0.000000 -0.000001 0.000000 -5.336285 -14.160891 1.019379 31.224623 -3.280297 1.050646 -16.896845 -13.744209 -3.276894 -2.494376 -0.176713 0.432686 0.000000 -0.000001 0.000000 
0.307053 95.352287 104.560425 -10.219718 3.247509 -1.261435 3.267282 0.462087 0.982785 6.530417 1.016018 1.720747 6.530417 1.016016 1.720746 -5.158534 -0.361104 -0.336674 -5.158536 -0.361103 -0.336676 -0.000000 0.000000 -0.000000 8.816465 6.650191 -2.997334 6.838286 -32.309875 -70.384041 -0.113479 -29.508128 -0.004224 0.000001 -0.000001 0.000001 8.970955 5.372380 -4.239898 -7.754782 18.047482 66.744404 -0.060582 42.279161 0.003667 0.000001 0.000001 -0.000000 -10.365242 9.066821 6.816722 28.264588 0.517455 -1.040638 -8.044832 -4.849235 -0.754550 -0.942300 -0.028588 0.064239 0.000000 0.000000 -0.000000 -3.759086 -13.312161 1.297088 30.213017 -3.109268 1.023461 -17.025100 -14.252937 -2.873796 -2.471858 -0.176728 0.432813 0.000000 0.000000 0.000000 
0.696847 95.567268 105.676117 -10.308801 2.794572 -1.321829 3.165612 0.356377 0.920967 6.328853 0.805120 1.587663 6.328861 0.805119 1.587664 -5.130859 -0.320654 -0.319716 -5.130854 -0.320653 -0.319714 -0.000000 0.000000 -0.000000 8.934421 6.435912 -2.968621 6.034700 -32.281369 -70.455717 -0.104324 -28.685500 -0.004282 -0.000001 0.000001 -0.000000 9.098970 5.332939 -3.832282 -8.528140 17.613238 68.235004 -0.055593 41.705016 0.005273 0.000001 -0.000001 -0.000001 -8.758871 9.892533 6.433091 26.191897 0.755147 -0.962261 -7.734885 -5.189679 -0.230600 -1.280155 -0.028888 0.065684 0.000000 -0.000000 -0.000000 -2.384552 -12.128366 1.430727 29.038105 -2.808939 0.986861 -17.005631 -15.131260 -2.524083 -2.478217 -0.176609 0.432767 -0.000000 -0.000000 -0.000000 
